
<svg xmlns="http://www.w3.org/2000/svg" viewBox="0 0 400 300" width="100%" height="100%">
  <defs>
    <linearGradient id="bgGrad" x1="0%" y1="0%" x2="0%" y2="100%">
      <stop offset="0%" style="stop-color:#ffffff" />
      <stop offset="100%" style="stop-color:#f3f4f8" />
    </linearGradient>
    <radialGradient id="glow" cx="50%" cy="50%" r="50%">
      <stop offset="0%" style="stop-color:#f11287;stop-opacity:0.12" />
      <stop offset="100%" style="stop-color:#f11287;stop-opacity:0" />
    </radialGradient>
    <linearGradient id="bodyBlue" x1="0%" y1="0%" x2="100%" y2="100%">
      <stop offset="0%" style="stop-color:#111116" />
      <stop offset="100%" style="stop-color:#f11287" />
    </linearGradient>
  </defs>
  <rect width="400" height="300" rx="18" fill="url(#bgGrad)" />
  <circle cx="200" cy="140" r="130" fill="url(#glow)" />
  <ellipse cx="200" cy="245" rx="145" ry="8" fill="rgba(13,13,18,0.15)" filter="blur(4px)" />

  <!-- Wheels -->
  <circle cx="100" cy="205" r="40" fill="#1c1c20" stroke="#fff" stroke-width="6" />
  <circle cx="100" cy="205" r="26" fill="#f3f4f8" stroke="#111" stroke-width="3" />
  <circle cx="300" cy="205" r="40" fill="#1c1c20" stroke="#fff" stroke-width="6" />
  <circle cx="300" cy="205" r="26" fill="#f3f4f8" stroke="#111" stroke-width="3" />

  <!-- Frame & Tank -->
  <path d="M 100,205 L 170,135 L 260,135 L 300,205" fill="none" stroke="#222" stroke-width="14" />
  <path d="M 170,135 Q 215,100 255,130 Z" fill="url(#bodyBlue)" /> <!-- Sporty fuel tank -->
  <path d="M 120,135 Q 160,120 180,140 Z" fill="#222" /> <!-- Seat -->

  <!-- Front forks -->
  <path d="M 300,205 L 265,100" stroke="#888" stroke-width="8" stroke-linecap="round" />
  <circle cx="270" cy="100" r="8" fill="#ffa800" /> <!-- Indicator -->
</svg>
