
<svg xmlns="http://www.w3.org/2000/svg" viewBox="0 0 400 300" width="100%" height="100%">
  <defs>
    <!-- Background Gradients -->
    <linearGradient id="bgGrad" x1="0%" y1="0%" x2="0%" y2="100%">
      <stop offset="0%" style="stop-color:#ffffff" />
      <stop offset="100%" style="stop-color:#f3f4f8" />
    </linearGradient>
    <radialGradient id="glow" cx="50%" cy="50%" r="50%">
      <stop offset="0%" style="stop-color:#f11287;stop-opacity:0.12" />
      <stop offset="100%" style="stop-color:#f11287;stop-opacity:0" />
    </radialGradient>
    
    <!-- Metallic Gradients -->
    <linearGradient id="bodyPink" x1="0%" y1="0%" x2="100%" y2="100%">
      <stop offset="0%" style="stop-color:#f11287" />
      <stop offset="50%" style="stop-color:#d20f72" />
      <stop offset="100%" style="stop-color:#920a4e" />
    </linearGradient>
    <linearGradient id="chrome" x1="0%" y1="0%" x2="100%" y2="0%">
      <stop offset="0%" style="stop-color:#e0e0e0" />
      <stop offset="50%" style="stop-color:#ffffff" />
      <stop offset="100%" style="stop-color:#b5b5b5" />
    </linearGradient>
    <linearGradient id="seatGrad" x1="0%" y1="0%" x2="100%" y2="0%">
      <stop offset="0%" style="stop-color:#2c2c35" />
      <stop offset="100%" style="stop-color:#141419" />
    </linearGradient>
    <linearGradient id="wheelGrad" x1="0%" y1="0%" x2="100%" y2="100%">
      <stop offset="0%" style="stop-color:#3c3c44" />
      <stop offset="50%" style="stop-color:#1c1c20" />
      <stop offset="100%" style="stop-color:#0d0d0f" />
    </linearGradient>
  </defs>

  <!-- Card Background -->
  <rect width="400" height="300" rx="18" fill="url(#bgGrad)" />
  <circle cx="200" cy="140" r="130" fill="url(#glow)" />
  
  <!-- Ground Shadow -->
  <ellipse cx="200" cy="245" rx="140" ry="12" fill="rgba(13,13,18,0.15)" filter="blur(6px)" />
  
  <!-- Rear Wheel -->
  <circle cx="105" cy="215" r="38" fill="url(#wheelGrad)" stroke="#ffffff" stroke-width="4" />
  <circle cx="105" cy="215" r="24" fill="url(#chrome)" />
  <circle cx="105" cy="215" r="8" fill="#1c1c20" />
  
  <!-- Front Wheel -->
  <circle cx="295" cy="215" r="38" fill="url(#wheelGrad)" stroke="#ffffff" stroke-width="4" />
  <circle cx="295" cy="215" r="24" fill="url(#chrome)" />
  <circle cx="295" cy="215" r="8" fill="#1c1c20" />

  <!-- Front Suspension Fork -->
  <path d="M 295,215 L 280,140" stroke="url(#chrome)" stroke-width="12" stroke-linecap="round" />
  
  <!-- Main Frame & Floorboard -->
  <path d="M 105,215 L 160,215 L 195,160 L 270,160" fill="none" stroke="#22222b" stroke-width="20" stroke-linecap="round" />
  <path d="M 160,215 L 250,215" stroke="url(#chrome)" stroke-width="10" stroke-linecap="round" /> <!-- Chrome step -->
  
  <!-- Rear Body Shell (Pink Engine Fairing) -->
  <path d="M 105,215 C 90,160 120,110 185,110 C 200,110 205,165 190,205 Z" fill="url(#bodyPink)" />
  
  <!-- Front Shield Apron -->
  <path d="M 270,160 L 290,95 C 295,80 275,80 260,82 L 245,150 Z" fill="url(#bodyPink)" />
  <!-- Front Fender (Mudguard) -->
  <path d="M 280,185 C 275,170 315,170 310,195 Z" fill="url(#bodyPink)" />

  <!-- Premium Leather Seat -->
  <path d="M 130,112 C 145,95 210,95 220,110 C 222,120 135,130 130,112 Z" fill="url(#seatGrad)" />
  <path d="M 135,108 Q 175,98 215,108" fill="none" stroke="#444452" stroke-width="2" /> <!-- Seat stitching detail -->
  
  <!-- Handlebars & Mirrors -->
  <path d="M 280,95 L 285,75" stroke="url(#chrome)" stroke-width="10" stroke-linecap="round" />
  <path d="M 270,75 L 300,73" stroke="#1c1c20" stroke-width="8" stroke-linecap="round" /> <!-- Grips -->
  <circle cx="265" cy="55" r="12" fill="url(#chrome)" /> <!-- Mirror Left -->
  <path d="M 275,70 L 267,58" stroke="url(#chrome)" stroke-width="3" />
  
  <!-- Headlight (Glowing Chrome) -->
  <path d="M 285,95 L 295,93" stroke="url(#chrome)" stroke-width="14" stroke-linecap="round" />
  <circle cx="295" cy="93" r="6" fill="#fff" />
  
  <!-- Pillion Grab Rail -->
  <path d="M 115,115 C 105,115 110,135 125,135" fill="none" stroke="url(#chrome)" stroke-width="6" stroke-linecap="round" />
</svg>
